<?xml version="1.0" standalone="no"?>
<!DOCTYPE svg PUBLIC "-//W3C//DTD SVG 20010904//EN"
 "http://www.w3.org/TR/2001/REC-SVG-20010904/DTD/svg10.dtd">
<svg version="1.0" xmlns="http://www.w3.org/2000/svg"
 width="700.000000pt" height="700.000000pt" viewBox="0 0 700.000000 700.000000"
 preserveAspectRatio="xMidYMid meet">
<metadata>
Created by potrace 1.14, written by Peter Selinger 2001-2017
</metadata>
<g transform="translate(0.000000,700.000000) scale(0.100000,-0.100000)"
fill="#000000" stroke="none">
<path d="M155 6780 c-65 -6 -99 -23 -133 -69 -19 -27 -22 -42 -21 -131 1 -99
1 -101 32 -134 51 -54 71 -60 197 -62 63 -1 219 -5 345 -9 127 -4 247 -8 267
-7 l38 1 19 -67 c58 -199 85 -296 100 -362 5 -19 34 -123 65 -230 32 -107 59
-204 61 -215 3 -11 14 -51 25 -90 33 -108 73 -255 119 -425 22 -85 68 -256
101 -380 34 -124 63 -232 65 -240 7 -30 246 -916 260 -965 8 -27 35 -126 60
-220 25 -93 52 -192 60 -220 8 -27 24 -84 35 -125 11 -41 25 -91 30 -110 6
-19 37 -134 70 -255 33 -121 62 -225 64 -231 3 -6 -21 -24 -52 -40 -48 -25
-159 -124 -199 -176 -67 -89 -103 -237 -98 -398 8 -236 120 -400 360 -526 53
-28 60 -35 58 -60 -17 -263 -9 -350 41 -451 113 -229 294 -350 535 -357 122
-4 174 6 266 49 136 63 230 140 292 238 78 124 101 313 60 502 -4 18 2 20 82
25 111 6 1598 6 1604 0 3 -3 -1 -36 -8 -73 -32 -168 13 -386 100 -492 155
-186 310 -260 529 -251 158 7 284 59 394 161 87 81 124 137 168 258 21 60 26
90 27 182 2 183 -44 312 -152 427 -115 124 -236 185 -371 187 -47 1 -119 4
-160 7 -41 2 -757 6 -1590 9 -833 2 -1552 6 -1597 8 -109 6 -161 34 -191 106
-39 89 -31 167 21 220 55 57 111 78 226 86 57 4 111 8 120 10 10 2 53 6 97 9
43 4 99 9 124 11 25 3 71 7 103 10 32 2 77 6 100 9 23 3 74 8 112 11 39 4 86
8 105 10 19 2 67 7 105 10 39 3 81 7 95 10 14 2 61 6 104 10 43 4 86 8 95 10
9 1 51 6 93 10 43 3 88 8 100 10 13 2 59 6 103 10 44 4 88 9 97 10 9 2 48 6
85 10 37 3 79 8 93 10 14 2 57 7 95 10 39 4 84 9 100 12 17 3 50 6 75 8 63 4
188 15 230 20 19 2 69 7 110 10 41 3 95 8 120 10 25 3 74 7 110 10 36 3 76 7
90 10 14 2 64 7 112 10 49 3 96 8 106 10 10 2 56 6 103 10 46 4 98 8 114 10
17 1 59 6 95 9 36 4 85 9 110 11 25 3 70 7 100 10 30 3 75 7 100 10 25 3 69 7
98 10 28 3 73 7 100 10 26 2 72 7 102 10 275 26 321 36 369 84 20 20 42 54 48
76 7 22 30 153 53 290 49 300 45 278 65 395 9 52 18 106 20 120 3 22 69 410
81 480 2 14 6 36 9 50 3 14 10 54 15 90 5 36 19 115 29 175 24 136 31 172 37
210 2 17 11 66 19 110 16 86 53 300 61 350 4 30 10 58 20 105 3 14 5 75 6 137
1 103 -1 115 -23 147 -13 19 -41 45 -62 57 -38 21 -50 21 -386 23 l-348 1 0
295 c-1 854 0 837 -62 894 -38 37 -74 42 -287 41 l-162 0 34 37 c54 60 63 87
60 169 -4 88 -15 119 -56 159 -41 40 -106 52 -203 36 -57 -9 -66 -15 -220
-169 l-118 -118 -67 58 c-37 32 -72 63 -78 68 -6 6 -41 37 -79 70 -37 33 -74
66 -82 74 -36 35 -153 35 -229 1 -33 -16 -45 -29 -63 -70 -41 -96 -26 -205 38
-279 12 -13 21 -27 21 -30 0 -3 -86 -7 -190 -7 -188 -1 -190 -2 -224 -27 -69
-53 -81 -89 -93 -279 l-6 -98 -511 -1 c-281 0 -714 -2 -963 -4 l-452 -3 -36
-28 c-44 -33 -65 -72 -70 -127 -9 -104 -18 -366 -18 -507 l0 -155 -156 2 c-86
1 -175 2 -198 3 -41 0 -41 0 -57 53 -31 103 -59 203 -71 252 -7 28 -22 82 -33
120 -10 39 -83 304 -162 590 -150 549 -156 567 -223 602 -29 15 -79 17 -487
18 -250 0 -482 -2 -515 -5z"/>
</g>
</svg>
